<?xml version="1.0" standalone="no"?>
<!DOCTYPE svg PUBLIC "-//W3C//DTD SVG 20010904//EN"
 "http://www.w3.org/TR/2001/REC-SVG-20010904/DTD/svg10.dtd">
<svg version="1.0" xmlns="http://www.w3.org/2000/svg"
 width="512.000000pt" height="512.000000pt" viewBox="0 0 512.000000 512.000000"
 preserveAspectRatio="xMidYMid meet">
<metadata>
Created by potrace 1.14, written by Peter Selinger 2001-2017
</metadata>
<g transform="translate(0.000000,512.000000) scale(0.100000,-0.100000)"
fill="#000000" stroke="none">
<path d="M2495 5084 c-44 -19 -82 -39 -85 -43 -3 -5 -63 -34 -135 -66 -71 -32
-200 -89 -285 -127 -85 -38 -207 -92 -270 -119 -63 -28 -135 -62 -160 -76 -55
-30 -267 -126 -680 -307 -96 -43 -197 -90 -225 -105 -27 -15 -56 -26 -62 -24
-7 3 -13 0 -13 -7 0 -6 -4 -8 -10 -5 -5 3 -10 1 -10 -6 0 -7 -3 -10 -6 -6 -4
3 -13 -1 -21 -9 -8 -8 -19 -12 -24 -9 -5 4 -9 1 -9 -4 0 -6 -4 -10 -9 -9 -5 2
-74 -91 -153 -207 -150 -220 -284 -411 -320 -457 -21 -26 -21 -30 -8 -113 7
-47 18 -93 24 -101 10 -13 34 -5 171 55 88 39 205 93 260 121 55 28 149 72
209 99 l110 50 48 -107 c26 -59 55 -120 65 -137 9 -16 29 -53 45 -81 88 -159
302 -244 461 -184 99 37 230 153 370 325 101 124 238 285 293 345 95 101 154
182 154 209 0 26 -64 123 -123 186 -15 17 -25 36 -22 43 6 15 252 375 280 409
l20 24 47 -88 c27 -48 67 -122 89 -163 23 -41 48 -86 55 -100 8 -14 14 -35 14
-46 0 -12 11 -29 24 -37 15 -10 37 -49 60 -108 20 -50 36 -92 34 -93 -2 -1
-55 -10 -118 -21 -156 -24 -350 -85 -361 -112 -2 -4 -22 -24 -44 -42 -22 -19
-39 -39 -38 -43 2 -4 -1 -8 -6 -8 -15 0 -50 -102 -63 -185 -9 -54 -11 -142 -8
-270 l5 -190 455 -3 455 -2 -3 -45 -4 -45 -652 0 c-372 0 -672 -4 -701 -9
-104 -20 -227 -75 -239 -108 -4 -9 -9 -13 -13 -10 -8 9 -34 -13 -28 -24 3 -4
-7 -15 -23 -23 -16 -8 -43 -37 -59 -63 -67 -110 -86 -159 -118 -310 -10 -46
-21 -83 -24 -83 -19 0 -20 -602 -1 -620 3 -3 14 -41 24 -85 24 -107 56 -214
71 -245 7 -14 21 -42 31 -64 24 -50 95 -129 149 -166 42 -29 145 -70 176 -70
10 0 19 -3 21 -7 2 -5 91 -6 198 -3 l195 5 3 253 c1 160 6 252 12 252 6 0 8
10 5 23 -4 15 -1 28 9 36 9 8 16 19 16 25 0 6 -5 4 -10 -4 -8 -13 -10 -12 -10
3 0 9 9 26 21 38 11 11 18 23 15 26 -3 3 2 12 12 20 9 8 11 12 5 8 -7 -3 -13
-1 -13 4 0 6 7 11 15 11 14 0 20 12 16 33 -1 5 3 6 9 2 5 -3 10 -1 10 4 0 6 0
13 0 16 1 2 22 27 49 54 46 47 126 103 181 128 14 6 39 17 55 24 24 11 152 15
600 20 509 5 576 7 625 23 30 10 60 25 66 32 7 8 16 13 20 12 5 -2 10 2 12 7
3 10 23 24 32 22 3 0 30 24 60 54 59 58 80 91 116 182 l23 59 -2 541 c-2 494
-4 545 -20 579 -9 21 -16 39 -15 40 1 2 -13 26 -31 53 -87 129 -219 209 -411
245 -93 18 -165 23 -375 28 l-260 5 -78 107 c-42 59 -77 117 -77 129 0 12 -7
24 -15 27 -8 4 -36 45 -62 93 -26 47 -53 92 -60 99 -12 13 -17 27 -14 45 0 4
-3 7 -9 7 -12 0 -51 75 -43 84 4 3 1 6 -5 6 -6 0 -21 18 -32 40 l-20 40 51 72
c29 40 58 78 65 84 8 6 11 14 7 17 -3 4 -2 7 4 7 5 0 31 32 57 70 47 69 48 71
41 125 -8 67 -16 69 -130 19z m15 -1383 c0 -5 8 -7 18 -5 10 3 32 -8 53 -28
71 -65 72 -166 2 -231 -62 -59 -179 -49 -233 20 -15 19 -20 41 -20 86 0 72 25
118 78 147 38 20 102 27 102 11z"/>
<path d="M4020 2803 c0 -183 -4 -253 -15 -298 -9 -33 -20 -61 -25 -63 -5 -2
-6 -10 -3 -19 4 -9 0 -21 -8 -27 -8 -6 -16 -20 -17 -31 -9 -48 -139 -181 -225
-229 -37 -21 -69 -41 -72 -46 -3 -4 -15 -6 -27 -2 -13 3 -19 1 -15 -5 4 -7 -9
-10 -35 -9 -23 0 -43 -4 -45 -9 -2 -7 -182 -9 -510 -7 -377 2 -513 0 -530 -9
-12 -6 -31 -9 -42 -6 -13 3 -19 1 -15 -5 5 -7 -2 -9 -18 -6 -13 2 -30 -2 -37
-9 -7 -8 -20 -12 -28 -9 -9 4 -11 2 -7 -6 5 -7 2 -9 -9 -5 -9 3 -17 3 -19 -1
-5 -13 -86 -72 -97 -72 -6 0 -11 -3 -11 -7 0 -5 -14 -24 -31 -43 -36 -40 -78
-109 -84 -137 -2 -10 -11 -40 -19 -68 -13 -42 -16 -124 -16 -536 0 -427 2
-492 17 -540 9 -30 17 -56 18 -59 0 -3 17 -31 37 -62 79 -122 255 -221 486
-273 39 -9 72 -21 72 -26 0 -4 14 -6 30 -2 17 3 30 1 30 -4 0 -6 92 -10 245
-10 151 0 245 4 245 10 0 5 14 7 30 5 17 -3 30 -2 30 2 0 4 26 13 58 20 209
47 355 115 453 211 27 27 47 49 44 49 -2 0 3 9 12 20 10 11 26 41 37 67 17 42
20 78 24 280 l4 233 -459 0 -458 0 3 45 4 45 708 0 c389 0 713 1 721 4 207 61
282 145 375 422 20 60 40 110 45 112 4 2 5 10 3 17 -3 8 2 45 12 82 26 98 26
450 0 575 -10 49 -16 95 -12 103 3 8 2 15 -2 15 -4 0 -16 33 -26 73 -50 202
-105 311 -201 395 -93 82 -109 86 -382 90 l-243 4 0 -239z m-416 -2033 c21
-13 43 -37 52 -58 20 -47 14 -124 -13 -160 -26 -36 -89 -67 -135 -65 -46 1
-103 35 -119 73 -7 16 -16 27 -19 25 -3 -2 -5 25 -5 60 0 35 2 62 6 60 3 -2
13 11 23 29 16 31 34 45 76 60 29 11 99 -2 134 -24z"/>
<path d="M4004 2800 c0 -129 2 -182 3 -117 2 64 2 170 0 235 -1 64 -3 11 -3
-118z"/>
<path d="M4912 2235 c0 -16 2 -22 5 -12 2 9 2 23 0 30 -3 6 -5 -1 -5 -18z"/>
<path d="M2458 2053 c7 -3 16 -2 19 1 4 3 -2 6 -13 5 -11 0 -14 -3 -6 -6z"/>
<path d="M4911 1894 c0 -11 3 -14 6 -6 3 7 2 16 -1 19 -3 4 -6 -2 -5 -13z"/>
<path d="M3828 1073 c18 -2 45 -2 60 0 15 2 0 4 -33 4 -33 0 -45 -2 -27 -4z"/>
<path d="M2798 153 c7 -3 16 -2 19 1 4 3 -2 6 -13 5 -11 0 -14 -3 -6 -6z"/>
<path d="M3178 153 c7 -3 16 -2 19 1 4 3 -2 6 -13 5 -11 0 -14 -3 -6 -6z"/>
</g>
</svg>
