<?xml version="1.0" standalone="no"?>
<!DOCTYPE svg PUBLIC "-//W3C//DTD SVG 20010904//EN"
 "http://www.w3.org/TR/2001/REC-SVG-20010904/DTD/svg10.dtd">
<svg version="1.0" xmlns="http://www.w3.org/2000/svg"
 width="152.000000pt" height="152.000000pt" viewBox="0 0 152.000000 152.000000"
 preserveAspectRatio="xMidYMid meet">
<metadata>
Created by potrace 1.10, written by Peter Selinger 2001-2011
</metadata>
<g transform="translate(0.000000,152.000000) scale(0.100000,-0.100000)"
fill="#000000" stroke="none">
<path d="M450 1368 l-305 -140 -67 -99 c-47 -68 -68 -108 -68 -129 0 -16 1
-30 3 -30 2 0 28 12 58 26 79 39 160 74 169 74 4 0 15 -20 24 -44 24 -62 50
-93 91 -106 56 -18 93 7 206 141 98 117 99 117 80 140 -17 22 -18 22 -17 2 2
-34 -191 -245 -234 -256 -26 -7 -59 19 -76 59 -26 63 -23 67 101 130 64 32
120 63 126 70 5 6 23 17 40 24 17 8 28 18 25 26 -3 7 3 18 12 26 13 11 15 11
8 -2 -4 -8 1 -4 12 9 11 14 18 30 15 37 -2 7 1 15 8 20 8 5 10 3 4 -6 -5 -8
-4 -11 3 -6 6 4 8 14 5 23 -4 10 -2 14 5 9 11 -6 28 11 19 20 -3 3 -70 -24
-149 -60 -79 -37 -154 -66 -166 -66 -13 0 -22 -6 -22 -15 0 -20 8 -19 59 6 95
45 194 89 204 89 5 0 4 -8 -5 -17 -8 -10 -19 -30 -25 -44 -8 -18 -33 -36 -82
-59 -39 -18 -67 -38 -64 -43 4 -6 0 -8 -11 -4 -9 4 -15 3 -12 -2 6 -9 -105
-62 -141 -66 -34 -5 -62 -15 -156 -57 -48 -22 -93 -38 -99 -36 -6 2 2 19 19
38 16 19 44 55 61 80 51 73 66 87 118 110 27 12 71 33 97 46 27 13 55 24 63
24 8 0 22 4 32 9 9 5 31 15 47 22 17 8 32 16 35 19 7 9 167 70 181 70 8 0 8
-4 -1 -15 -7 -8 -18 -15 -26 -15 -7 0 -15 -4 -18 -8 -3 -5 16 -3 42 3 31 8 47
18 47 28 0 9 4 19 9 24 5 5 6 2 2 -7 -5 -8 3 -1 18 15 27 33 33 56 14 54 -7 0
-150 -64 -318 -141z"/>
<path d="M760 1276 l51 -94 -51 -7 c-56 -8 -109 -39 -127 -75 -7 -14 -13 -58
-13 -97 l0 -73 141 0 c128 0 140 -2 137 -17 -3 -16 -21 -18 -213 -18 -184 0
-215 -3 -248 -19 -90 -44 -129 -208 -91 -379 14 -58 24 -79 54 -110 36 -35 41
-37 104 -37 36 0 69 -1 74 -2 4 -2 9 40 12 92 6 111 24 145 93 179 39 19 61
21 211 21 186 0 212 7 246 63 18 28 20 51 20 202 0 145 -3 174 -17 195 -43 62
-94 80 -230 83 l-92 2 -18 40 c-10 22 -20 42 -23 45 -3 3 -16 26 -30 53 -13
26 -28 47 -32 47 -4 0 15 -42 42 -94z m300 -149 c67 -32 71 -47 68 -234 l-3
-163 -28 -27 -27 -28 -183 -6 c-202 -6 -223 -11 -283 -77 -32 -35 -40 -60 -49
-150 -6 -58 -10 -62 -56 -62 -54 0 -83 22 -110 83 -20 44 -23 68 -23 162 0 92
4 117 21 150 44 85 71 93 309 93 182 0 189 1 206 22 32 40 1 69 -78 72 -55 1
-58 6 -29 40 33 39 32 57 -6 104 l-31 39 24 6 c12 4 70 5 128 2 81 -3 115 -10
150 -26z m-292 -33 c41 -28 19 -94 -32 -94 -30 0 -46 18 -46 51 0 24 30 59 50
59 3 0 16 -7 28 -16z m-68 -121 c0 -7 -6 -13 -14 -13 -20 0 -39 27 -32 46 6
15 8 15 26 -1 11 -10 20 -24 20 -32z"/>
<path d="M1202 812 c1 -82 -7 -108 -51 -155 -48 -53 -66 -57 -248 -57 -140 0
-174 -3 -202 -18 -66 -33 -70 -47 -73 -246 l-3 -178 43 -38 c35 -31 58 -42
119 -56 133 -29 292 1 348 67 22 27 25 40 25 105 l0 74 -124 0 c-69 0 -127 -4
-130 -9 -7 -11 148 -26 194 -19 l30 5 -1 -61 c-1 -34 -4 -50 -6 -36 -12 65
-88 93 -131 47 -33 -35 -28 -70 14 -107 20 -17 34 -33 32 -35 -10 -10 -81 -18
-160 -17 -96 0 -161 22 -210 69 l-26 25 -1 167 c-1 159 0 167 21 192 40 45 56
48 241 49 l176 2 45 29 c61 41 85 83 92 160 10 113 7 110 66 108 45 -2 57 -7
83 -34 64 -68 86 -238 47 -349 -27 -75 -47 -105 -78 -116 -14 -6 -117 -10
-229 -10 -125 0 -206 -4 -210 -10 -4 -7 72 -10 222 -10 263 0 261 -1 299 87
59 133 43 340 -32 419 -30 33 -34 34 -108 34 l-76 0 2 -78z m-118 -588 c33
-32 9 -86 -39 -86 -48 -1 -70 48 -38 84 20 22 56 23 77 2z"/>
</g>
</svg>
