<?xml version="1.0" standalone="yes"?>
<svg xmlns="http://www.w3.org/2000/svg" width="512" height="512">
<path style="fill:#010102; stroke:none;" d="M0 0L0 164L1 164L35.8588 114L50 96L50 94L56 93L56 91L58 90L74 83.8611L111 67.4244L210 22.6913L257 1L233 0L181 0L0 0z"/>
<path style="fill:#edefe5; stroke:none;" d="M239 9L239 10L260 1C262.978 13.1271 252.891 22.5405 246.28 32C243.196 36.4127 240.731 41.4435 235 42L235 43C246.755 51.4788 257.2 74.3861 263.838 87.2593C267.667 94.6853 271.354 105.115 278.326 110.397C284.427 115.019 300.566 112 308 112C326.775 112.001 349.396 113.28 366 122.876C376.049 128.684 385.033 137.87 388.899 149C393.149 161.237 391 176.23 391 189C391 221.627 400.985 269.247 369 289.896C357.332 297.428 343.316 297 330 297L275 297C247.781 297 216.881 297.531 204 327C207.65 325.794 208.91 323.795 209 320C219.458 314.894 226.091 305.003 238 301.193C247.815 298.052 258.84 299 269 299L321 299C332.279 299 360.089 303.306 367 292L370 293L370 290L375 289C381.375 280.026 388.67 274.24 391.679 263C395.151 250.03 393 234.328 393 221C393 187.692 402.826 140.593 368 121.465C351.484 112.393 330.519 111 312 111C304.272 111 289.054 113.918 282.3 109.972C273.563 104.868 269.451 91.4141 263.9 83.5756C259.629 77.5459 251.554 67.4527 251 60L246 51C237.161 43.4149 245.893 32.87 253 27L252 25C261.764 19.6579 262.769 9.73795 262 0C253.872 0.417175 245.748 4.65863 239 9z"/>
<path style="fill:#010102; stroke:none;" d="M262 0C262.45 10.4693 260.654 17.8478 252 25L253 27C245.479 31.1121 235.577 45.0841 246 51C245.972 55.1241 247.384 57.9475 251 60C250.989 67.7003 259.507 78.2218 263.9 84.4244C269.071 91.7268 273.438 106.579 282.3 110.397C289.911 113.675 303.74 110.999 312 111C331.358 111.001 353.167 112.822 370 123.171C402.548 143.179 393 189.57 393 222C393 234.829 394.965 249.797 391.598 262.285C388.538 273.637 379.667 279.197 375 289L370 290L370 293L367 292C355.807 304.123 326.903 299 312 299C288.487 299 257.306 293.698 235 301.889C224.246 305.838 217.882 313.565 209 320L204 327L205 330L203 330L204 333C199.519 335.62 199.106 341.208 200 346C196.741 348.848 198 354.932 198 359C198 367.51 201.727 387.557 196.972 394.682C194.8 397.937 189.341 397 186 397C176.866 397.001 166.924 395.875 158 398C154.946 394.366 148.285 393.996 144 391.958C136.926 388.592 130.457 382.442 126.094 376C120.981 368.449 117.35 358.899 115.453 350C114.386 344.995 114.027 336.388 110 333L109.039 311L110 271C114.578 267.302 114.321 258.424 115.756 253C118.657 242.036 124.278 230.231 134 224L137 221C148.578 207.36 168.796 208 185 208L297 208L298 199L236 199C228.519 199 216.041 201.406 209.148 198.397C204.114 196.199 206 186.409 206 182C206 167.53 202.696 145.281 214 134L213 132C217.872 129.484 221.234 125.07 226.039 122.515C238.554 115.861 255.894 112.291 270 112C264.555 89.0222 247.316 69.6191 238 48C229.132 54.9384 222.973 67.7169 216.656 77C213.966 80.9536 209.527 85.3203 208.23 89.9992C205.561 99.6234 225.558 106.334 220.82 117C215.13 129.81 200.395 141.296 191.41 152C170.644 176.741 137.51 225.948 102.004 192.907C96.825 188.087 93.6045 182.052 90.0895 176C85.7677 168.559 81.3776 159.253 79 151L4 185L1 171L0 171L0 512L512 512L512 0L262 0z"/>
<path style="fill:#538cc7; stroke:none;" d="M4 180C13.8185 168.399 33.477 163.607 47 157.219C83.2192 140.111 126.218 126.099 156 99L161 88L157 91L157 89L155 91C148.953 86.2259 140.681 91.5664 134 93L134 102L118 96C120.752 88.7213 121.814 84.9137 130 89C129.126 84.6303 140.611 82.1946 145 80C156.74 74.1299 168.874 68.0525 181 63C186.839 60.5669 196.285 57.5766 197 54C199.579 54.6336 201 54.8188 201 52L204 53L203 50L209 51L209 50L204 50L206 46L209 47L217 38L220 35L223 31C228.88 17.0378 246.751 7.5162 260 2L233 41C240.354 43.8724 243.195 37.4837 246.975 32C253.534 22.4837 263.845 13.1642 260 1C240.413 6.5994 221.506 18.2177 203 26.6913C169.368 42.0909 135.314 56.665 102 72.7415C79.5424 83.5789 54.6939 89.1679 39.8588 110C30.8953 122.587 22.1421 135.339 13.2801 148C9.68976 153.129 2.90273 159.759 1.68364 166C0.867856 170.176 2.74328 176.026 4 180z"/>
<path style="fill:#3271a7; stroke:none;" d="M223 31L220 35L217 38C213.475 37.9266 208.901 43.666 209 47L206 46L204 50C210.163 50.8979 215.556 46.8067 221 44.3087C224.825 42.5533 230.451 41.8714 233.739 39.3727C244.063 31.5265 253.718 13.2844 260 2C247.433 5.62039 226.58 17.4142 223 31z"/>
<path style="fill:#edefe5; stroke:none;" d="M236.667 10.3333L237.333 10.6667L236.667 10.3333M234.667 11.3333L235.333 11.6667L234.667 11.3333M232.667 12.3333L233.333 12.6667L232.667 12.3333M230.667 13.3333L231.333 13.6667L230.667 13.3333M227 14L227 15L230 15L227 14M225.667 15.3333L226.333 15.6667L225.667 15.3333M223.667 16.3333L224.333 16.6667L223.667 16.3333M221.667 17.3333L222.333 17.6667L221.667 17.3333M210 22L210 23L221 19L210 22M208.667 23.3333L209.333 23.6667L208.667 23.3333M153 48L153 49L208 25L193 29.5787L153 48z"/>
<path style="fill:#538cc7; stroke:none;" d="M229 40L227 41L227 42L229 40z"/>
<path style="fill:#ffde58; stroke:none;" d="M129 87L129 88C137.455 86.7326 145.234 81.8126 153 78.4244C170.807 70.6558 188.228 61.997 206 54.1396C212.999 51.045 227.347 40.8895 234.957 45.0995C239.247 47.4728 241.277 52.9312 243.576 57C249.025 66.6454 253.899 76.7484 260 86C261.242 81.4577 257.351 76.8999 255.231 73C250.374 64.0681 242.434 40.9071 230 41.5139C220.762 41.9647 209.454 50.0711 201 53.7191C177.23 63.9763 151.345 73.9606 129 87z"/>
<path style="fill:#edefe5; stroke:none;" d="M232.667 41.3333L233.333 41.6667L232.667 41.3333z"/>
<path style="fill:#538cc7; stroke:none;" d="M225 42L226 43L225 42M222.667 43.3333L223.333 43.6667L222.667 43.3333M231.667 43.3333L232.333 43.6667L231.667 43.3333z"/>
<path style="fill:#3271a7; stroke:none;" d="M207 44L208 45L207 44z"/>
<path style="fill:#538cc7; stroke:none;" d="M220.667 44.3333L221.333 44.6667L220.667 44.3333M227 44L228 45L227 44z"/>
<path style="fill:#3271a7; stroke:none;" d="M118 96C124.095 98.8342 126.668 103.185 134 102L134 93C141.055 92.0306 148.227 87.1087 155 91L156 89L157 89L157 91L161 88L156 99C150.906 102.138 147.293 107.131 141.999 110.255C110.69 128.728 76.3129 144.04 43 158.576C32.1107 163.327 6.07185 169.993 4 183C22.5133 177.936 40.5593 167.187 58 159.231C63.1157 156.897 73.9334 149.221 79.5324 150.272C84.7934 151.259 88.87 162.875 91.4244 167C103.085 185.829 113.262 210.003 140 200.896C162.455 193.248 178.933 165.399 193.414 148C196.527 144.259 210.748 131.622 206 127L194.983 98.7886L205 92C200.761 80.2674 216.201 65.3491 222.859 56C225.706 52.0026 228.323 45.4366 234 47L234 44L206 54.1396L146 81.4244L131.17 87.6829L121.564 87.0432L118 96z"/>
<path style="fill:#538cc7; stroke:none;" d="M234 44L234 47C228.185 45.0279 225.884 50.7535 222.859 55C217.755 62.1647 197.312 83.667 206 91L237 45L234 44M218.667 45.3333L219.333 45.6667L218.667 45.3333M225 45L226 46L225 45M216.667 46.3333L217.333 46.6667L216.667 46.3333M222 46L223 47L222 46z"/>
<path style="fill:#edefe5; stroke:none;" d="M236 46L234 51L238 48L241 55L242 55L238 46L236 46z"/>
<path style="fill:#538cc7; stroke:none;" d="M214 47L215 48L214 47M220 47L221 48L220 47M212 48L213 49L212 48M218 48L219 49L218 48z"/>
<path style="fill:#edefe5; stroke:none;" d="M151.667 49.3333L152.333 49.6667L151.667 49.3333z"/>
<path style="fill:#538cc7; stroke:none;" d="M210 49L211 50L210 49M216 49L217 50L216 49z"/>
<path style="fill:#edefe5; stroke:none;" d="M149.667 50.3333L150.333 50.6667L149.667 50.3333z"/>
<path style="fill:#3271a7; stroke:none;" d="M203 50L203 52L205 52L203 50z"/>
<path style="fill:#538cc7; stroke:none;" d="M214 50L215 51L214 50z"/>
<path style="fill:#edefe5; stroke:none;" d="M146 51L146 52L149 52L146 51z"/>
<path style="fill:#538cc7; stroke:none;" d="M211 51L212 52L211 51z"/>
<path style="fill:#edefe5; stroke:none;" d="M233 51C226.144 60.5725 219.693 70.4188 212.859 80C210.375 83.4821 205.309 88.4142 205.531 93C205.916 100.952 222.366 109.445 218.886 117.17C215.118 125.534 206.189 133.085 200.271 140C184.49 158.438 164.925 176.395 151 196C172.041 182.082 186.551 158.169 203 139.424C208.703 132.926 219.485 124.705 221.552 116C224.03 105.562 206.37 99.1106 208.861 89.9992C211.35 80.8962 221.606 70.7536 226.975 63C229.373 59.5376 233.597 55.3531 233 51M144.667 52.3333L145.333 52.6667L144.667 52.3333z"/>
<path style="fill:#3271a7; stroke:none;" d="M201.667 52.3333L202.333 52.6667L201.667 52.3333z"/>
<path style="fill:#538cc7; stroke:none;" d="M209 52L210 53L209 52z"/>
<path style="fill:#edefe5; stroke:none;" d="M142.667 53.3333L143.333 53.6667L142.667 53.3333z"/>
<path style="fill:#3271a7; stroke:none;" d="M199 53L200 54L199 53z"/>
<path style="fill:#538cc7; stroke:none;" d="M207 53L208 54L207 53z"/>
<path style="fill:#edefe5; stroke:none;" d="M135 56L135 57L142 55L135 56z"/>
<path style="fill:#3271a7; stroke:none;" d="M197 54L198 55L197 54z"/>
<path style="fill:#538cc7; stroke:none;" d="M205 54L206 55L205 54z"/>
<path style="fill:#3271a7; stroke:none;" d="M195 55L196 56L195 55z"/>
<path style="fill:#538cc7; stroke:none;" d="M202 55L203 56L202 55z"/>
<path style="fill:#edefe5; stroke:none;" d="M242 55L256 82L257 82C254.529 73.4405 248.338 61.2704 242 55z"/>
<path style="fill:#538cc7; stroke:none;" d="M200 56L201 57L200 56z"/>
<path style="fill:#edefe5; stroke:none;" d="M133.667 57.3333L134.333 57.6667L133.667 57.3333z"/>
<path style="fill:#3271a7; stroke:none;" d="M190 57L191 58L190 57z"/>
<path style="fill:#538cc7; stroke:none;" d="M198 57L199 58L198 57z"/>
<path style="fill:#edefe5; stroke:none;" d="M131.667 58.3333L132.333 58.6667L131.667 58.3333z"/>
<path style="fill:#3271a7; stroke:none;" d="M188 58L189 59L188 58z"/>
<path style="fill:#538cc7; stroke:none;" d="M196 58L197 59L196 58z"/>
<path style="fill:#edefe5; stroke:none;" d="M129.667 59.3333L130.333 59.6667L129.667 59.3333z"/>
<path style="fill:#3271a7; stroke:none;" d="M186 59L187 60L186 59z"/>
<path style="fill:#538cc7; stroke:none;" d="M194 59L195 60L194 59z"/>
<path style="fill:#edefe5; stroke:none;" d="M127.667 60.3333L128.333 60.6667L127.667 60.3333z"/>
<path style="fill:#3271a7; stroke:none;" d="M184 60L185 61L184 60z"/>
<path style="fill:#538cc7; stroke:none;" d="M192 60L193 61L192 60z"/>
<path style="fill:#edefe5; stroke:none;" d="M63 89L63 90L127 62L109 67.8611L63 89z"/>
<path style="fill:#3271a7; stroke:none;" d="M181.667 61.3333L182.333 61.6667L181.667 61.3333z"/>
<path style="fill:#538cc7; stroke:none;" d="M189.667 61.3333L190.333 61.6667L189.667 61.3333z"/>
<path style="fill:#3271a7; stroke:none;" d="M179 62L180 63L179 62z"/>
<path style="fill:#538cc7; stroke:none;" d="M187.667 62.3333L188.333 62.6667L187.667 62.3333z"/>
<path style="fill:#3271a7; stroke:none;" d="M177 63L178 64L177 63z"/>
<path style="fill:#538cc7; stroke:none;" d="M185 63L186 64L185 63M183 64L184 65L183 64M180.667 65.3333L181.333 65.6667L180.667 65.3333M178.667 66.3333L179.333 66.6667L178.667 66.3333M176 67L177 68L176 67M174 68L175 69L174 68M172 69L173 70L172 69M170 70L171 71L170 70M168 71L169 72L168 71M165.667 72.3333L166.333 72.6667L165.667 72.3333M163 73L164 74L163 73M161 74L162 75L161 74M159 75L160 76L159 75M157 76L158 77L157 76M152 78L153 79L152 78M150 79L151 80L150 79M148 80L149 81L148 80z"/>
<path style="fill:#edefe5; stroke:none;" d="M257 82L264 97L265 97L257 82z"/>
<path style="fill:#538cc7; stroke:none;" d="M141 83L142 84L141 83M139 84L140 85L139 84M137 85L138 86L137 85M261 85L261 86L264 89L265 89L261 85M135 86L136 87L135 86z"/>
<path style="fill:#3271a7; stroke:none;" d="M260 86L264 90L264 86L260 86z"/>
<path style="fill:#538cc7; stroke:none;" d="M132 87L133 88L132 87M164 87L165 88L164 87M259 87L260 88L259 87z"/>
<path style="fill:#3271a7; stroke:none;" d="M149 89L150 90L149 89z"/>
<path style="fill:#538cc7; stroke:none;" d="M260 89L261 90L260 89z"/>
<path style="fill:#edefe5; stroke:none;" d="M58 90L56 91L61 91L58 90M61.6667 90.3333L62.3333 90.6667L61.6667 90.3333z"/>
<path style="fill:#538cc7; stroke:none;" d="M262 90L263 91L262 90z"/>
<path style="fill:#ffde58; stroke:none;" d="M263 90L271 113L272 113L273 111L279 113C276.286 105.838 269.588 94.0256 263 90z"/>
<path style="fill:#3271a7; stroke:none;" d="M156 91L157 92L156 91M158.333 91.6667L158.667 92.3333L158.333 91.6667z"/>
<path style="fill:#edefe5; stroke:none;" d="M54 92L54 94L56 94L54 92z"/>
<path style="fill:#538cc7; stroke:none;" d="M204 92L194.407 99.213L206 127L207 132C211.268 128.736 219.877 120.879 219.784 115C219.678 108.3 208.131 97.2377 204 92z"/>
<path style="fill:#edefe5; stroke:none;" d="M50 94L50 96L52 96L50 94M52.6667 94.3333L53.3333 94.6667L52.6667 94.3333M48 95L22 135C32.9072 125.986 42.9897 108.306 50 96L48 95M265.333 98.6667L265.667 99.3333L265.333 98.6667M266.333 100.667L266.667 101.333L266.333 100.667M267.333 103.667L267.667 104.333L267.333 103.667M268.333 105.667L268.667 106.333L268.333 105.667M269.333 108.667L269.667 109.333L269.333 108.667z"/>
<path style="fill:#538cc7; stroke:none;" d="M271 109L272 110L271 109z"/>
<path style="fill:#edefe5; stroke:none;" d="M270 110C263.745 114.763 251.654 114.03 244 115.898C231.342 118.988 223.201 124.307 213 132L214 134C201.738 142.101 206 169.553 206 182C206 185.861 204.131 196.336 208.318 198.397C214.522 201.449 227.127 199 234 199L298 199L297 208L180 208C166.797 207.999 144.689 207.695 137 221L134 224C114.213 232.777 121.143 257.402 110 271L109.004 310L110 333C119.002 344.437 117.344 364.079 126.094 377C134.899 390.001 147.248 389.529 158 398C167.168 396.298 176.705 397 186 397C188.98 397 194.853 398.073 196.972 395.397C199.175 392.615 198 386.328 198 383C198 373.614 194.277 353.555 200 346L200 337L199 337L197 395C178.027 395 155.103 398.922 139.004 386.66C125.514 376.385 119.725 360.887 115.87 345C107.129 308.969 104.559 253.081 134.015 225.09C151.625 208.355 173.521 210 196 210C230.642 210 265.298 209 300 209L300 198L235 198C228.822 198 215.486 200.521 210.218 197.111C206.232 194.531 208 185.086 208 181C208 165.535 205.663 145.756 216.278 133C226.26 121.005 243.324 117.327 258 114.926C261.112 114.417 271.767 114.788 270 110z"/>
<path style="fill:#538cc7; stroke:none;" d="M272 111C267.283 114.862 259.849 114.369 254 115.424C242.053 117.579 228.241 120.718 219.04 129.185C205.478 141.666 208 163.307 208 180C208 183.985 206.025 195.284 210.318 197.397C216.522 200.449 229.127 198 236 198L300 198L300 209C265.296 209 230.633 210 196 210C174.221 210 152.708 208.025 135 223.264C112.189 242.893 108.118 284.958 110.866 313C111.383 318.283 111.107 342.068 117 343C113.9 358.896 128.306 381.929 142 389C133.566 378.54 117.672 366.498 120 351L118 352L118 351L135 332L135 331L133 329L138 329L139 328L141 320L142 320L140 325C143.478 322.195 149.317 317.652 147 313L153 311L153 310L150 311L150 310L155 308L154 306L154 305L157 306L158 301L159 303L160 303L162 298L161 300L172 288L170 289C171.39 286.684 173.128 286.626 170 286L170 285L175 283L174 285L175 285L176 283L174 282L174 281L175 280L179 281L179 280L176 280L181 276L180 278L183 276L181 273L184 274L186 270L184 271L184 270L188 269L196 260L197 254L200 256L201 255L199 252L205 249L203 247L207 248L211 243L211 242L208 243L214 240L212 237L219 230L222 226L226 222L229 218L232 217L232 216L229 217L230 214L255 210.17L301 210C301 206.855 302.047 201.223 299.972 198.603C297.532 195.522 289.476 197 286 197C274.825 197 260.109 199.479 250 194L253 194L252 191L254 191L253 188L257 188L257 185L259 186L260 185L260 184L258 182L262 183L265 176L270 172L268 170L270 169L271 169L271 171L272 171L273 165L278 164C277.612 160.993 278.87 157.653 282 160L281 156L284 156L282 153L287 150L285 155L286 155L288 149C291.88 148.236 292.512 145.724 292 142L294 144L295 144L297 142L302 131C305.34 131.067 306.402 130.299 307 127L313 123L314 122L313 120L323 114.321L346 116L346 115L314 114L314 113L319 113L319 112C304.904 112 285.247 115.555 272 111z"/>
<path style="fill:#3271a7; stroke:none;" d="M311.667 113.333L312.333 113.667L311.667 113.333M314 113L314 114L320 114L314 113M314 122L313 123L311 122L307 127L302 131L297 142L295 144L294 144L292 142C291.932 145.401 291.42 147.873 288 149L286 155L285 155L287 150L282 153L284 156L281 156L282 160L280 158L278 164L273 165L272 171L270 169L268 170L268 173L270 172L265 176L262 183L260 184L260 185L257 185L256 186L257 188L253 188L254 191L252 191L253 194L250 194C258.213 200.319 276.078 197 286 197C289.694 197 296.521 195.728 299.397 198.603C301.981 201.188 301 206.677 301 210C282.941 210 264.961 209.959 247 211.028C241.958 211.328 231.004 211.978 229 217L232 216L232 217L229 218L226 222L222 226L219 230L212 237L214 240L208 243L211 242L211 243L207 248L203 247L203 250L205 249L199 252L201 255L200 256L197 254L196 260L188 269L186 267L184 271L186 270L184 274L181 273L183 276L180 278L181 276L180 276L176 280L179 280L179 281L177 282L176 280L175 280L174 281L175 285L174 285L175 283L174 283L170 285L170 286L172 287L170 289L172 288L161 300L162 298L161 298L160 303L159 303L158 301L157 306L154 305L155 308L150 310L150 311L153 310L153 311L147 313C147.888 317.706 142.917 321.66 140 325L142 320L141 320L139 328L138 329L133 329L135 331L135 332C128.289 336.143 121.625 345.014 118 352L120 351L120 352C117.966 357.735 123.043 366.043 125.873 371C128.142 374.975 130.804 378.713 134.04 381.961C152.243 400.225 174.017 389.766 196 395C196 376.934 192.356 354.237 198.44 337C217.287 283.599 281.553 296 326 296C349.895 296 375.088 295.462 386.485 270C391.669 258.419 391 246.363 391 234L391 179C391 164.056 391.467 149.581 381.957 137.001C370.484 121.825 352.141 116.372 334 114.914C326.816 114.337 315.891 112.334 314 122z"/>
<path style="fill:#010102; stroke:none;" d="M156 115L157 116L156 115z"/>
<path style="fill:#3271a7; stroke:none;" d="M313 115L312 117L313 115M315 115L312 120L318 115L315 115z"/>
<path style="fill:#010102; stroke:none;" d="M86 147L86 148C93.7187 151.715 115.099 152.332 121 145L140 140L150 130L149 126L154 122L155 116C132.122 122.588 106.552 135.005 86 147z"/>
<path style="fill:#538cc7; stroke:none;" d="M347 116L347 117L350 117L347 116M350 117L350 118L354 118L350 117M354 118L354 119L357 119L354 118M358.667 119.333L359.333 119.667L358.667 119.333z"/>
<path style="fill:#3271a7; stroke:none;" d="M309 120L308 122L309 120z"/>
<path style="fill:#538cc7; stroke:none;" d="M360.667 120.333L361.333 120.667L360.667 120.333z"/>
<path style="fill:#3271a7; stroke:none;" d="M312 121L313 122L312 121z"/>
<path style="fill:#538cc7; stroke:none;" d="M362.667 121.333L363.333 121.667L362.667 121.333M364.667 122.333L365.333 122.667L364.667 122.333M366 123L369 125L366 123z"/>
<path style="fill:#3271a7; stroke:none;" d="M306 124L307 125L306 124z"/>
<path style="fill:#538cc7; stroke:none;" d="M369.667 125.333L370.333 125.667L369.667 125.333z"/>
<path style="fill:#3271a7; stroke:none;" d="M304 126L301 130L304 128L303 131L307 128L304 126M306 126L307 127L306 126z"/>
<path style="fill:#538cc7; stroke:none;" d="M371 126L372 127L371 126M372 127L373 128L372 127M373 128L376 130L373 128M376 130L377 131L376 130M377 131L378 132L377 131M206 132L207 133L206 132z"/>
<path style="fill:#3271a7; stroke:none;" d="M298.333 132.667L298.667 133.333L298.333 132.667z"/>
<path style="fill:#538cc7; stroke:none;" d="M378 132L379 133L378 132M205 133L206 134L205 133M303 133L302 135L303 133M379 133L380 134L379 133M204.333 134.667L204.667 135.333L204.333 134.667M380 134L382 137L380 134z"/>
<path style="fill:#edefe5; stroke:none;" d="M21 135L17 142L21 135z"/>
<path style="fill:#3271a7; stroke:none;" d="M296 135L297 136L296 135z"/>
<path style="fill:#538cc7; stroke:none;" d="M203 136L204 137L203 136z"/>
<path style="fill:#3271a7; stroke:none;" d="M299 136L294 137L294 138L294 141L299 136z"/>
<path style="fill:#538cc7; stroke:none;" d="M202 137L203 138L202 137M382 137L383 138L382 137M201 138L202 139L201 138M383 138L384 139L383 138M200 139L201 140L200 139M199 140L200 141L199 140z"/>
<path style="fill:#edefe5; stroke:none;" d="M243 140.638C222.511 146.57 231.189 179.557 252 174.068C274.074 168.246 265.325 134.175 243 140.638z"/>
<path style="fill:#3271a7; stroke:none;" d="M292 140L291 142L292 140z"/>
<path style="fill:#538cc7; stroke:none;" d="M384 140L385 141L384 140M198.333 141.667L198.667 142.333L198.333 141.667z"/>
<path style="fill:#010102; stroke:none;" d="M251 143C241.633 132.294 231.794 154.145 233.228 162C233.87 165.514 236.055 168.012 239.015 169.887C241.912 171.722 244.627 172.265 248 172.125C256.267 171.782 262.812 166.753 263.581 158C264.222 150.698 258.945 141.714 251 143z"/>
<path style="fill:#538cc7; stroke:none;" d="M385.333 141.667L385.667 142.333L385.333 141.667z"/>
<path style="fill:#edefe5; stroke:none;" d="M16 142L10 152L16 142z"/>
<path style="fill:#538cc7; stroke:none;" d="M197 143L198 144L197 143z"/>
<path style="fill:#3271a7; stroke:none;" d="M289 143L290 146L291 146L292 143L291 143L289 143z"/>
<path style="fill:#538cc7; stroke:none;" d="M386.333 143.667L386.667 144.333L386.333 143.667M196 144L197 145L196 144M195 145L196 146L195 145M387.333 145.667L387.667 146.333L387.333 145.667M194 146L195 147L194 146M193 147L194 148L193 147M388 147L388 150L389 150L388 147z"/>
<path style="fill:#3271a7; stroke:none;" d="M287 148L288 149L287 148M289 148L290 149L289 148z"/>
<path style="fill:#538cc7; stroke:none;" d="M79 149C90.5986 176.896 101.965 205.765 137 203L137 202C128.111 202.382 119.702 203.152 112.043 197.362C97.1978 186.14 95.2072 158.344 79 149M192 149L193 150L192 149z"/>
<path style="fill:#3271a7; stroke:none;" d="M285 149L286 150L285 149z"/>
<path style="fill:#538cc7; stroke:none;" d="M70 153L70 154L78 151L70 153z"/>
<path style="fill:#edefe5; stroke:none;" d="M78 150L92 180L93 180C90.6927 171.991 85.0227 154.604 78 150z"/>
<path style="fill:#538cc7; stroke:none;" d="M191 150L192 151L191 150M389 150L389 153L390 153L389 150z"/>
<path style="fill:#edefe5; stroke:none;" d="M76.6667 151.333L77.3333 151.667L76.6667 151.333z"/>
<path style="fill:#538cc7; stroke:none;" d="M190 151L191 152L190 151z"/>
<path style="fill:#3271a7; stroke:none;" d="M283 151L284 152L283 151z"/>
<path style="fill:#edefe5; stroke:none;" d="M9 152L8 155L9 152M74 152L75 153L74 152z"/>
<path style="fill:#538cc7; stroke:none;" d="M189 152L190 153L189 152z"/>
<path style="fill:#edefe5; stroke:none;" d="M72 153L73 154L72 153z"/>
<path style="fill:#538cc7; stroke:none;" d="M188 153L189 154L188 153M68 154L69 155L68 154z"/>
<path style="fill:#edefe5; stroke:none;" d="M69.6667 154.333L70.3333 154.667L69.6667 154.333M7 155C-0.585042 164.419 -1.38789 173.868 4 185L53 163L53 162L4 183L1.95216 167L7 155z"/>
<path style="fill:#538cc7; stroke:none;" d="M66 155L67 156L66 155z"/>
<path style="fill:#edefe5; stroke:none;" d="M67.6667 155.333L68.3333 155.667L67.6667 155.333z"/>
<path style="fill:#538cc7; stroke:none;" d="M187 155L188 156L187 155M390 155L390 158L391 158L390 155M64 156L65 157L64 156z"/>
<path style="fill:#edefe5; stroke:none;" d="M65.6667 156.333L66.3333 156.667L65.6667 156.333z"/>
<path style="fill:#538cc7; stroke:none;" d="M186 156L187 157L186 156M59 158L59 159L63 158L59 158z"/>
<path style="fill:#edefe5; stroke:none;" d="M63 157L64 158L63 157z"/>
<path style="fill:#538cc7; stroke:none;" d="M185 157L186 158L185 157z"/>
<path style="fill:#edefe5; stroke:none;" d="M61 158L62 159L61 158z"/>
<path style="fill:#538cc7; stroke:none;" d="M184 158L185 159L184 158z"/>
<path style="fill:#3271a7; stroke:none;" d="M276 158L276 160L278 158L276 158z"/>
<path style="fill:#538cc7; stroke:none;" d="M57 159L58 160L57 159z"/>
<path style="fill:#edefe5; stroke:none;" d="M58.6667 159.333L59.3333 159.667L58.6667 159.333z"/>
<path style="fill:#538cc7; stroke:none;" d="M183 159L184 160L183 159M55 160L56 161L55 160z"/>
<path style="fill:#edefe5; stroke:none;" d="M56.6667 160.333L57.3333 160.667L56.6667 160.333z"/>
<path style="fill:#538cc7; stroke:none;" d="M52.6667 161.333L53.3333 161.667L52.6667 161.333z"/>
<path style="fill:#edefe5; stroke:none;" d="M54 161L55 162L54 161z"/>
<path style="fill:#538cc7; stroke:none;" d="M50 162L51 163L50 162M181 162L182 163L181 162z"/>
<path style="fill:#3271a7; stroke:none;" d="M273 162L272 164L273 162z"/>
<path style="fill:#538cc7; stroke:none;" d="M48 163L49 164L48 163M180 163L181 164L180 163M46 164L47 165L46 164M179 164L180 165L179 164M44 165L45 166L44 165M42 166L43 167L42 166z"/>
<path style="fill:#3271a7; stroke:none;" d="M269 166L269 167L269 168L272 169L273 166L269 166z"/>
<path style="fill:#538cc7; stroke:none;" d="M40 167L41 168L40 167M176 168L177 169L176 168M35 169L36 170L35 169M175 169L176 170L175 169z"/>
<path style="fill:#3271a7; stroke:none;" d="M267 169L266 172L267 172L267 169z"/>
<path style="fill:#538cc7; stroke:none;" d="M33 170L34 171L33 170M174 170L175 171L174 170M31 171L32 172L31 171M173 171L174 172L173 171M28 172L29 173L28 172M26 173L27 174L26 173z"/>
<path style="fill:#3271a7; stroke:none;" d="M267 173L268 174L267 173z"/>
<path style="fill:#538cc7; stroke:none;" d="M24 174L25 175L24 174M22 175L23 176L22 175M170 175L171 176L170 175M19 176L20 177L19 176M169 176L170 177L169 176M17 177L18 178L17 177M168 177L169 178L168 177z"/>
<path style="fill:#3271a7; stroke:none;" d="M260 177L261 178L260 177M263 177L260 181L261 182L265 178L263 177z"/>
<path style="fill:#538cc7; stroke:none;" d="M15 178L16 179L15 178M167 178L168 179L167 178M13 179L14 180L13 179z"/>
<path style="fill:#3271a7; stroke:none;" d="M258 179L257 181L258 179z"/>
<path style="fill:#538cc7; stroke:none;" d="M11 180L12 181L11 180z"/>
<path style="fill:#edefe5; stroke:none;" d="M93.3333 180.667L93.6667 181.333L93.3333 180.667z"/>
<path style="fill:#538cc7; stroke:none;" d="M8.66667 181.333L9.33333 181.667L8.66667 181.333M6 182L7 183L6 182z"/>
<path style="fill:#edefe5; stroke:none;" d="M94.3333 182.667L94.6667 183.333L94.3333 182.667z"/>
<path style="fill:#3271a7; stroke:none;" d="M255 183L256 184L255 183z"/>
<path style="fill:#edefe5; stroke:none;" d="M95.3333 184.667L95.6667 185.333L95.3333 184.667z"/>
<path style="fill:#3271a7; stroke:none;" d="M253 185L255 187L253 185z"/>
<path style="fill:#edefe5; stroke:none;" d="M96 186L99 190L96 186z"/>
<path style="fill:#538cc7; stroke:none;" d="M160 186L161 187L160 186M159 187L160 188L159 187M158 188L159 189L158 188z"/>
<path style="fill:#3271a7; stroke:none;" d="M251 188C249.378 190.208 247.472 192.535 251 193L251 192L249 193L249 192L253 190L253 189L251 188z"/>
<path style="fill:#538cc7; stroke:none;" d="M251 189L252 190L251 189z"/>
<path style="fill:#edefe5; stroke:none;" d="M99 190L100 191L99 190M100 191L101 192L100 191z"/>
<path style="fill:#538cc7; stroke:none;" d="M154 191L155 192L154 191z"/>
<path style="fill:#edefe5; stroke:none;" d="M101 192L102 193L101 192z"/>
<path style="fill:#538cc7; stroke:none;" d="M153 192L154 193L153 192z"/>
<path style="fill:#edefe5; stroke:none;" d="M102 193L106 196L102 193z"/>
<path style="fill:#538cc7; stroke:none;" d="M152 193L153 194L152 193M151 194L152 195L151 194M147 198L151 196L147 198z"/>
<path style="fill:#3271a7; stroke:none;" d="M249 195L250 196L249 195z"/>
<path style="fill:#edefe5; stroke:none;" d="M106 196L109 198L106 196M149 196L150 197L149 196M148 197L149 198L148 197M109.667 198.333L110.333 198.667L109.667 198.333z"/>
<path style="fill:#538cc7; stroke:none;" d="M145 198L146 199L145 198z"/>
<path style="fill:#edefe5; stroke:none;" d="M146.667 198.333L147.333 198.667L146.667 198.333M111.667 199.333L112.333 199.667L111.667 199.333z"/>
<path style="fill:#538cc7; stroke:none;" d="M143 199L141 200L141 201L143 199z"/>
<path style="fill:#edefe5; stroke:none;" d="M144.667 199.333L145.333 199.667L144.667 199.333M113.667 200.333L114.333 200.667L113.667 200.333M143 200L144 201L143 200M115.667 201.333L116.333 201.667L115.667 201.333z"/>
<path style="fill:#538cc7; stroke:none;" d="M138.667 201.333L139.333 201.667L138.667 201.333z"/>
<path style="fill:#edefe5; stroke:none;" d="M140.667 201.333L141.333 201.667L140.667 201.333M118.667 202.333L119.333 202.667L118.667 202.333M137.667 202.333L138.333 202.667L137.667 202.333M122 203L122 204L125 204L122 203M132 203L132 204L136 204L132 203M402 208L402 247C401.997 254.004 401.843 262.505 397 268L395 273C394.663 284.995 372.455 302.751 361 303L362 305L348.961 306.446L274 306L243 307C243 309.854 241.314 308.67 239 308L234 310L235 312L232 311C224.532 319.413 215.104 323.919 210.41 334.961C205.439 346.653 206 358.59 206 371L206 426C206 441.711 205.533 456.245 216.329 468.985C224.954 479.165 238.626 484.841 251 488.836C256.868 490.73 264.272 490.87 269 495L275 496C288.366 493.555 310.634 493.555 324 496L330 495L357 486.086L386 467L385 465C390.266 461.716 391.439 454.768 392.271 449C394.29 434.995 393 420.14 393 406L301 406L302 397L411 397C428.697 397 447.748 399.943 462.985 388.956C479.012 377.399 476.326 356.23 488 343L489.83 327L490.985 297L488 264C480.655 255.037 480.992 239.341 474.686 229C458.4 202.295 428.948 208 402 208M400 209L400 255L401 255C401 241.996 405.01 220.939 400 209z"/>
<path style="fill:#ffde58; stroke:none;" d="M403 210C403 243.423 407.295 278.394 375 299.301C369.861 302.628 363.963 305.315 358 306.761C323.137 315.216 284.264 302.384 249 308.615C229.494 312.062 210.633 326.975 209.09 348C207.703 366.903 209.79 386.064 208.961 405C208.045 425.921 203.28 452.187 219.093 468.985C248.016 499.709 304.507 499.145 342 489.371C357.574 485.311 374.514 478.546 384.211 465C395.413 449.353 391 425.204 391 407L300 407L300 395L414 395C430.778 395 450.503 398.193 463.96 385.815C472.775 377.705 477.485 365.049 481.343 354C492.001 323.48 490.948 294.3 484.6 263C481.293 246.693 475.715 228.113 462 217.529C446.349 205.452 421.534 210 403 210z"/>
<path style="fill:#3271a7; stroke:none;" d="M233 213L234 214L233 213M228 214L229 215L228 214M226 217L224 220L229 220L229 219L226 217M228 217L229 218L228 217M225 221L226 222L225 221M224 223L224 225L226 223L224 223M220 224L221 225L220 224M220 226L220 229L221 229L220 226M216 228L216 229L218 228L218 232L219 232L218 227L216 228M214 231L211 237L212 237L215 234L214 231z"/>
<path style="fill:#538cc7; stroke:none;" d="M213 233L214 234L213 233z"/>
<path style="fill:#3271a7; stroke:none;" d="M208 239L204 245L208 244L208 243L206 244L206 243L208 239M212 239L213 240L212 239M206 246L207 247L206 246M199 249L198 252L199 252L199 249M202 250L203 251L202 250M196 252L195 255L196 252M198 253L200 255L198 253M192 256L192 260L194 256L192 256z"/>
<path style="fill:#538cc7; stroke:none;" d="M390 256L390 259L391 259L390 256z"/>
<path style="fill:#3271a7; stroke:none;" d="M194 258L195 259L194 258z"/>
<path style="fill:#edefe5; stroke:none;" d="M399 260L400 261L399 260z"/>
<path style="fill:#538cc7; stroke:none;" d="M389.333 261.667L389.667 262.333L389.333 261.667M388 264L388 267L389 267L388 264z"/>
<path style="fill:#3271a7; stroke:none;" d="M185 265L186 266L185 265z"/>
<path style="fill:#538cc7; stroke:none;" d="M387.333 267.667L387.667 268.333L387.333 267.667z"/>
<path style="fill:#3271a7; stroke:none;" d="M182 269L183 270L182 269z"/>
<path style="fill:#538cc7; stroke:none;" d="M386 270L387 271L386 270z"/>
<path style="fill:#edefe5; stroke:none;" d="M396 270L397 271L396 270z"/>
<path style="fill:#3271a7; stroke:none;" d="M183 271L184 272L183 271z"/>
<path style="fill:#538cc7; stroke:none;" d="M385 272L386 273L385 272M384.333 273.667L384.667 274.333L384.333 273.667M383 275L384 276L383 275M382 277L383 278L382 277z"/>
<path style="fill:#3271a7; stroke:none;" d="M174 278L169 285L174 278z"/>
<path style="fill:#538cc7; stroke:none;" d="M381 278L382 279L381 278M380 279L381 280L380 279M379 280L378 283L379 280M377 283L378 284L377 283M375.667 284.333L376.333 284.667L375.667 284.333M374 285L375 286L374 285M373 286L374 287L373 286z"/>
<path style="fill:#edefe5; stroke:none;" d="M491 286L491 291L492 291L491 286z"/>
<path style="fill:#3271a7; stroke:none;" d="M167 287L166 289L167 287z"/>
<path style="fill:#538cc7; stroke:none;" d="M372 287L373 288L372 287M370.667 288.333L371.333 288.667L370.667 288.333M369 289L370 290L369 289z"/>
<path style="fill:#3271a7; stroke:none;" d="M167 290L164 295L167 290z"/>
<path style="fill:#538cc7; stroke:none;" d="M367.667 290.333L368.333 290.667L367.667 290.333M365.667 291.333L366.333 291.667L365.667 291.333M363.667 292.333L364.333 292.667L363.667 292.333z"/>
<path style="fill:#3271a7; stroke:none;" d="M162 293L163 294L162 293z"/>
<path style="fill:#538cc7; stroke:none;" d="M360.667 293.333L361.333 293.667L360.667 293.333M357 294L357 295L360 295L357 294z"/>
<path style="fill:#3271a7; stroke:none;" d="M162 295L161 296L161 297L162 298L163 298L164 297L164 296L162 295z"/>
<path style="fill:#538cc7; stroke:none;" d="M351 295L351 296L356 296L351 295M162 296L163 297L162 296M245 296L245 297L349 297L317 296L245 296z"/>
<path style="fill:#3271a7; stroke:none;" d="M158 297L159 298L158 297z"/>
<path style="fill:#538cc7; stroke:none;" d="M241 297L241 298L245 298L241 297M237 298L237 299L240 299L237 298z"/>
<path style="fill:#3271a7; stroke:none;" d="M158 299L159 300L158 299z"/>
<path style="fill:#538cc7; stroke:none;" d="M234 299L234 300L237 300L234 299M232.667 300.333L233.333 300.667L232.667 300.333M230 301L231 302L230 301z"/>
<path style="fill:#3271a7; stroke:none;" d="M154 302L155 303L154 302z"/>
<path style="fill:#538cc7; stroke:none;" d="M227.667 302.333L228.333 302.667L227.667 302.333M226 303L227 304L226 303z"/>
<path style="fill:#3271a7; stroke:none;" d="M151 306L154 305L151 306M156 304L157 305L156 304z"/>
<path style="fill:#538cc7; stroke:none;" d="M224 304L225 305L224 304M222.667 305.333L223.333 305.667L222.667 305.333z"/>
<path style="fill:#3271a7; stroke:none;" d="M153 306L152 308L153 306z"/>
<path style="fill:#538cc7; stroke:none;" d="M221 306L222 307L221 306z"/>
<path style="fill:#edefe5; stroke:none;" d="M245 306L245 307L248 307L245 306z"/>
<path style="fill:#538cc7; stroke:none;" d="M220 307L221 308L220 307z"/>
<path style="fill:#3271a7; stroke:none;" d="M149 308L147 311L149 308z"/>
<path style="fill:#538cc7; stroke:none;" d="M219 308L220 309L219 308M217 309L218 310L217 309M216 310L217 311L216 310M215 311L216 312L215 311M214 312L215 313L214 312z"/>
<path style="fill:#3271a7; stroke:none;" d="M145 313L146 314L145 313z"/>
<path style="fill:#538cc7; stroke:none;" d="M213 313L214 314L213 313M212 314L213 315L212 314M211 315L212 316L211 315z"/>
<path style="fill:#3271a7; stroke:none;" d="M145 316L143 319L145 316z"/>
<path style="fill:#538cc7; stroke:none;" d="M210 316L211 317L210 316z"/>
<path style="fill:#3271a7; stroke:none;" d="M141 317L142 318L141 317z"/>
<path style="fill:#538cc7; stroke:none;" d="M209 317L210 318L209 317M208.333 318.667L208.667 319.333L208.333 318.667M207 320L208 321L207 320M206 321L207 322L206 321z"/>
<path style="fill:#edefe5; stroke:none;" d="M491 321L491 324L492 324L491 321z"/>
<path style="fill:#538cc7; stroke:none;" d="M205.333 322.667L205.667 323.333L205.333 322.667z"/>
<path style="fill:#010102; stroke:none;" d="M207 323L208 324L207 323z"/>
<path style="fill:#3271a7; stroke:none;" d="M135 324L133 327L135 324z"/>
<path style="fill:#538cc7; stroke:none;" d="M204 324L197 345L198 345L204 324z"/>
<path style="fill:#3271a7; stroke:none;" d="M137 326L136 328L137 326z"/>
<path style="fill:#edefe5; stroke:none;" d="M203 328L201 334L204 333L205 329L203 328M205 328L206 329L205 328z"/>
<path style="fill:#3271a7; stroke:none;" d="M130 330L126 336L128 338L124 337L124 338L127 338L125 341L131 332L130 334L133 330L132 330L133 332L130 330z"/>
<path style="fill:#edefe5; stroke:none;" d="M200.333 334.667L200.667 335.333L200.333 334.667M202 334L203 335L202 334M201.333 337.667L201.667 338.333L201.333 337.667z"/>
<path style="fill:#3271a7; stroke:none;" d="M120 342L120 343L122 345L119 347L123 345L123 343L120 342M116.333 343.667L116.667 344.333L116.333 343.667z"/>
<path style="fill:#538cc7; stroke:none;" d="M196 345L196 395L197 395C197 380.951 201.409 357.89 196 345z"/>
<path style="fill:#3271a7; stroke:none;" d="M117.333 346.667L117.667 347.333L117.333 346.667z"/>
<path style="fill:#edefe5; stroke:none;" d="M199.333 348.667L199.667 349.333L199.333 348.667z"/>
<path style="fill:#538cc7; stroke:none;" d="M143 389L144 390L143 389M144 390L144 391L147 391L144 390M147 391L148 392L147 391M149.667 392.333L150.333 392.667L149.667 392.333M152 393L152 394L156 394L152 393M156 394L156 395L195 395C184.726 390.689 167.172 394 156 394z"/>
<path style="fill:#edefe5; stroke:none;" d="M380 404L380 405L391 405L380 404M348 430.53C326.121 435.481 333.164 469.483 355 464.471C376.376 459.564 369.424 425.682 348 430.53z"/>
<path style="fill:#010102; stroke:none;" d="M336 441L336 454C338.701 453.46 344.419 466.145 353 464C369.16 459.96 373.166 436.541 355 432C350.999 431 343.551 432.449 341 435C338.266 437.734 339.124 441.781 336 441z"/>
<path style="fill:#edefe5; stroke:none;" d="M363 456L364 457L363 456M350 489L351 490L350 489M259.667 492.333L260.333 492.667L259.667 492.333M338.667 492.333L339.333 492.667L338.667 492.333M335 493L336 494L335 493M279 496L279 497L282 497L279 496M317 496L317 497L320 497L317 496z"/>
</svg>
